<svg width="34" height="34" viewBox="0 0 34 34" fill="none" xmlns="http://www.w3.org/2000/svg">
                    <path d="M7.08325 7.08332C7.08325 6.7076 7.23251 6.34727 7.49818 6.08159C7.76386 5.81591 8.1242 5.66666 8.49992 5.66666H11.3333C11.709 5.66666 12.0693 5.81591 12.335 6.08159C12.6007 6.34727 12.7499 6.7076 12.7499 7.08332V26.9167C12.7499 27.2924 12.6007 27.6527 12.335 27.9184C12.0693 28.1841 11.709 28.3333 11.3333 28.3333H8.49992C8.1242 28.3333 7.76386 28.1841 7.49818 27.9184C7.23251 27.6527 7.08325 27.2924 7.08325 26.9167V7.08332Z" style="stroke: var(--main-color)" stroke-width="2" stroke-linecap="round" stroke-linejoin="round"/>
                    <path d="M12.75 7.08332C12.75 6.7076 12.8993 6.34727 13.1649 6.08159C13.4306 5.81591 13.7909 5.66666 14.1667 5.66666H17C17.3757 5.66666 17.7361 5.81591 18.0017 6.08159C18.2674 6.34727 18.4167 6.7076 18.4167 7.08332V26.9167C18.4167 27.2924 18.2674 27.6527 18.0017 27.9184C17.7361 28.1841 17.3757 28.3333 17 28.3333H14.1667C13.7909 28.3333 13.4306 28.1841 13.1649 27.9184C12.8993 27.6527 12.75 27.2924 12.75 26.9167V7.08332Z" style="stroke: var(--main-color)" stroke-width="2" stroke-linecap="round" stroke-linejoin="round"/>
                    <path d="M7.08325 11.3333H12.7499" style="stroke: var(--main-color)" stroke-width="2" stroke-linecap="round" stroke-linejoin="round"/>
                    <path d="M12.75 22.6667H18.4167" style="stroke: var(--main-color)" stroke-width="2" stroke-linecap="round" stroke-linejoin="round"/>
                    <path d="M19.5544 6.46001L22.6484 5.70918C23.4445 5.51793 24.2534 5.97834 24.4645 6.74618L29.6991 25.755C29.7915 26.103 29.7506 26.473 29.5844 26.7924C29.4183 27.1118 29.1389 27.3577 28.8009 27.4819L28.6125 27.54L25.5185 28.2908C24.7224 28.4821 23.9134 28.0217 23.7024 27.2538L18.4678 8.24501C18.3754 7.897 18.4163 7.52706 18.5825 7.20763C18.7486 6.8882 19.028 6.6423 19.3659 6.51809L19.5544 6.46001Z" style="stroke: var(--main-color)" stroke-width="2" stroke-linecap="round" stroke-linejoin="round"/>
                    <path d="M19.8333 12.75L25.4999 11.3333" style="stroke: var(--main-color)" stroke-width="2" stroke-linecap="round" stroke-linejoin="round"/>
                    <path d="M22.6667 22.6667L28.2243 21.2783" style="stroke: var(--main-color)" stroke-width="2" stroke-linecap="round" stroke-linejoin="round"/>
                    </svg>